<svg version="1.1" id="Layer_1" xmlns="http://www.w3.org/2000/svg" x="0" y="0" viewBox="0 0 415.9 50.1" style="enable-background:new 0 0 415.9 50.1" xml:space="preserve"><style>.st0{fill:#413afc}</style><path class="st0" d="M23.4 36.4H9.8l-3.8 9H2l14.7-33.6 14.4 33.6h-3.9l-3.8-9zM22 33l-5.4-12.8L11.2 33H22zM40.7 13.4c2.2 0 5.4.1 7.8 1.8 1.9 1.2 3.5 3.7 3.5 7.1 0 4.9-3.2 8.5-8.1 8.8l10.2 14.3h-4.3l-9.7-14h-.9v14h-3.6v-32h5.1zm-1.5 14.8h2.3c4.4 0 7.1-2.1 7.1-5.9 0-1.8-.5-3.6-2.5-4.7-1.4-.8-3.1-.9-4.6-.9h-2.2l-.1 11.5zM67.6 16.8v28.7H64V16.8h-7.8v-3.4h19.1v3.4h-7.7zM98.4 13c.8 1 1.2 2.3 1.2 3.7 0 2.5-1.1 4.9-3.3 7.3-2.3 2.5-4.7 3.7-7.2 3.7-1.6 0-2.9-.5-3.9-1.4s-1.5-2.3-1.5-4c0-2.6 1.1-5 3.3-7.4 2.2-2.4 4.6-3.6 7.2-3.6 2 .2 3.4.7 4.2 1.7zM87.5 26.1c.5.6 1.2 1 2.1 1 1.9 0 3.6-1.4 5.1-4.3 1.3-2.5 1.9-4.7 1.9-6.8 0-.9-.1-1.6-.3-2.1-.4-1-1.2-1.5-2.2-1.5-1.8 0-3.5 1.3-5 4-1.5 2.5-2.2 5-2.2 7.4-.1.8.1 1.6.6 2.3zM115.6 6.3c-.3.3-.6.5-1.1.5-.4 0-.7-.1-1-.4s-.4-.6-.4-.9c0-.2.1-.6.3-1.2 0-.2-.1-.3-.2-.4-.1-.1-.3-.2-.5-.2-.9 0-1.6.9-2.2 2.8-.3 1.1-.7 2.9-1.1 5.5h3.9l-.2 1.2h-4l-3.4 11.5c-.7 3-1.7 5.5-2.9 7.4-1.2 1.9-2.7 2.8-4.6 2.8-.9 0-1.6-.2-2.1-.7-.5-.5-.8-1-.8-1.5 0-.4.1-.7.3-1s.6-.5 1-.5.7.1 1 .4.4.6.4 1c0 .2-.1.4-.2.6l-.2.4c0 .1.1.2.2.3s.3.1.5.1c1 0 1.8-.8 2.5-2.4.4-.8.7-2 1-3.4l4.2-15.1h-3l.2-1.2h3.4c.6-2.7 1.4-4.8 2.2-6.1 1.2-2 2.7-3 4.4-3 .8 0 1.5.2 2 .7s.8 1 .8 1.6c0 .5-.1.9-.4 1.2zM139.4 20.5c-1-1-2.5-2.2-4.2-3-1.7-.8-3.6-1.2-5.5-1.2-7.4 0-12.9 6-12.9 13.3 0 8.7 7.1 13.1 12.9 13.1 2.2 0 4.3-.6 6-1.5 1.8-.9 3.1-2.1 3.7-2.7v4.4c-3.6 2.5-7.2 3.1-9.6 3.1-9.5 0-16.6-7.2-16.6-16.5 0-9.6 7.2-16.7 16.8-16.7 1.9 0 5.6.2 9.5 3.2v4.5zM144.2 29.4c0-9.6 7.4-16.6 16.7-16.6s16.7 7 16.7 16.6c0 9.5-7.4 16.6-16.7 16.6s-16.7-7.1-16.7-16.6zm3.7 0c0 7.3 5.8 13.2 13 13.2s13-5.9 13-13.2-5.8-13.2-13-13.2-13 5.9-13 13.2zM184 45.4V12.1l25 26.2V13.4h3.6v33.5l-25-26.2v24.7H184zM220.8 45.4V12.1l25 26.2V13.4h3.6v33.5l-25-26.2v24.7h-3.6zM274.2 16.8h-13.1v9.5h12.7v3.4h-12.7v12.4h13.1v3.4h-16.6v-32h16.6v3.3zM305.2 20.5c-1-1-2.5-2.2-4.2-3-1.7-.8-3.6-1.2-5.5-1.2-7.4 0-12.9 6-12.9 13.3 0 8.7 7.1 13.1 12.9 13.1 2.2 0 4.3-.6 6-1.5 1.8-.9 3.1-2.1 3.7-2.7v4.4c-3.6 2.5-7.2 3.1-9.6 3.1-9.6 0-16.6-7.2-16.6-16.5 0-9.6 7.2-16.7 16.8-16.7 1.9 0 5.6.2 9.5 3.2l-.1 4.5zM319.6 16.8v28.7H316V16.8h-7.8v-3.4h19.1v3.4h-7.7zM330.4 29.4c0-9.6 7.4-16.6 16.7-16.6 9.2 0 16.7 7 16.7 16.6 0 9.5-7.4 16.6-16.7 16.6-9.3 0-16.7-7.1-16.7-16.6zm3.7 0c0 7.3 5.8 13.2 13 13.2s13-5.9 13-13.2-5.8-13.2-13-13.2-13 5.9-13 13.2zM375.4 13.4c2.2 0 5.4.1 7.8 1.8 1.9 1.2 3.5 3.7 3.5 7.1 0 4.9-3.2 8.5-8.1 8.8l10.2 14.3h-4.3l-9.7-14h-.9v14h-3.6v-32h5.1zm-1.6 14.8h2.3c4.4 0 7.1-2.1 7.1-5.9 0-1.8-.5-3.6-2.5-4.7-1.4-.8-3.1-.9-4.6-.9h-2.2l-.1 11.5zM408.7 19.7c-.4-.9-1.2-1.8-1.9-2.4-.6-.5-1.8-1.1-3.6-1.1-3.2 0-5.4 2-5.4 4.9 0 1.2.3 2 1.2 2.8 1 1 2.2 1.5 3.4 2l3.1 1.3c1.9.8 3.6 1.7 4.9 3 1.6 1.6 2.3 3.5 2.3 5.8 0 5.9-4.4 9.8-10.1 9.8-2.1 0-4.8-.4-7-2.6-1.6-1.5-2.5-3.7-3-5.7l3.5-1c.2 1.7 1 3.1 1.9 4.1 1.4 1.4 3 1.8 4.6 1.8 4.4 0 6.4-3.1 6.4-6.3 0-1.4-.4-2.7-1.6-3.7-.9-.9-2.2-1.4-3.8-2.2l-2.9-1.3c-1.2-.6-2.8-1.2-4.3-2.6-1.4-1.3-2.2-2.8-2.2-5.2 0-4.9 3.8-8.3 9-8.3 2 0 3.6.4 5.1 1.4 1.3.9 2.4 2.2 3.1 3.6l-2.7 1.9z"/></svg>